<?xml version="1.0" encoding="UTF-8"?>
<svg id="Layer_1" xmlns="http://www.w3.org/2000/svg" version="1.1" viewBox="0 0 256.3728 146.7999">
  <!-- Generator: Adobe Illustrator 30.2.1, SVG Export Plug-In . SVG Version: 2.1.1 Build 1)  -->
  <g>
    <path d="M38.6627,124.1558h-1.5467c-.2887-1.0858-.8904-2.2479-1.8045-3.4853-.9146-1.2374-1.7911-1.9179-2.6294-2.0417-.4264-.0547-.9316-.0959-1.5158-.1237-.5847-.0273-1.2477-.0412-1.9901-.0412h-4.9083v11.7552h3.3698c1.0198,0,1.8123-.1062,2.3773-.3197.5651-.2129,1.0477-.5393,1.4472-.9796.2758-.3021.5269-.7734.7548-1.4127.2274-.6393.3753-1.323.4444-2.052h1.5467v11.5077h-1.5467c-.0412-.6048-.1825-1.292-.4238-2.0623-.2413-.7698-.4996-1.3266-.7754-1.6705-.4135-.5084-.9337-.8559-1.5607-1.0415s-1.3817-.2784-2.2639-.2784h-3.3698v10.0682c0,.4532.0892.8579.2681,1.2152.1784.3573.495.645.9487.8646.2062.0959.6527.2124,1.3405.3501.6873.1371,1.2095.2129,1.5674.2263v1.4642h-12.6832v-1.4642c.4125-.0273.9621-.0722,1.6498-.1341.6873-.0619,1.1343-.1408,1.3405-.2372.4125-.1784.7115-.4434.8971-.794s.2784-.7734.2784-1.2683v-21.118c0-.4537-.0758-.8559-.2269-1.2065-.1516-.3506-.4676-.6357-.9487-.8559-.3712-.1784-.8698-.3367-1.4952-.4743-.6259-.1371-1.124-.2196-1.4952-.2475v-1.4642h22.9535v7.3212h0Z" fill="#391311"/>
    <path d="M79.3025,118.2988c-.3851.0139-.9487.0964-1.6911.2475-.7424.1516-1.3477.3784-1.8148.6806-.4676.3166-.7909.9693-.9693,1.9592-.1789.9899-.2681,2.2-.2681,3.6297v12.7244c0,1.6225-.3372,3.0316-1.0105,4.2277-.6739,1.1961-1.5607,2.1793-2.6604,2.9491-1.0863.7424-2.2309,1.2755-3.4337,1.5983-1.2034.3228-2.3546.4846-3.4544.4846-1.7602,0-3.3275-.2305-4.7021-.6909-1.375-.4604-2.5299-1.0827-3.4647-1.8664-.9213-.7837-1.6158-1.6808-2.0829-2.6913-.4676-1.0105-.7012-2.0654-.7012-3.1656v-17.3028c0-.481-.0794-.8832-.2372-1.2065-.1583-.3228-.4779-.6218-.959-.8971-.3439-.1923-.7837-.347-1.3199-.464-.5362-.1165-.9765-.1887-1.3199-.2165v-1.4642h12.1882v1.4642c-.3851.0139-.8698.0758-1.4539.1856-.5847.1098-1.0141.2129-1.2889.3088-.4676.165-.7806.4398-.9384.8244-.1583.3846-.2372.8038-.2372,1.257v16.1556c0,.7832.0856,1.604.2578,2.4629.1717.8584.512,1.6586,1.0208,2.4005.5362.7558,1.2647,1.374,2.186,1.8545.9208.481,2.186.7213,3.7946.7213,1.5122,0,2.7805-.2403,3.805-.7213,1.0239-.4805,1.8318-1.1126,2.4232-1.8958.5635-.7419.9621-1.5179,1.1961-2.3283.2336-.8105.3506-1.6282.3506-2.4526v-11.9934c0-1.5246-.1103-2.7712-.33-3.7395-.2202-.9688-.5434-1.6045-.9693-1.9066-.4815-.3434-1.1379-.6115-1.9695-.8038-.8321-.1918-1.4678-.3016-1.9076-.3295v-1.4642h11.9614v1.4642l.0003.0002Z" fill="#391311"/>
    <path d="M118.6019,146.0987h-7.8801c-1.7447-2.7357-3.3208-5.1006-4.7289-7.0943-1.4075-1.9932-2.9357-4.0488-4.5835-6.1663h-2.9976v9.2804c0,.4815.0753.9043.2269,1.2683.1511.3645.4743.6429.9693.8352.2475.0964.6806.1856,1.2993.2681s1.141.131,1.5674.1444v1.4642h-12.3738v-1.4642c.33-.0273.8074-.0753,1.4333-.1444.6254-.0686,1.0621-.1578,1.3096-.2681.4125-.1784.7115-.4398.8971-.7837.1856-.3434.2784-.7837.2784-1.3199v-21.1593c0-.481-.0691-.9074-.2062-1.2786-.1377-.3712-.4609-.6527-.9693-.8455-.3439-.1237-.7909-.2372-1.3405-.3403-.5501-.1031-1.0177-.1681-1.4024-.1959v-1.4642h13.5081c1.2374,0,2.399.1273,3.4853.3815,1.0858.2547,2.069.6635,2.9491,1.2271.8522.5501,1.5328,1.2683,2.0417,2.1551.5084.8868.7631,1.9561.7631,3.2069,0,1.1276-.1722,2.1242-.5156,2.9903-.3439.8662-.8528,1.6158-1.5261,2.2479-.6187.5914-1.3611,1.1033-2.2273,1.5364s-1.822.8012-2.8666,1.1033c1.4436,1.9112,2.6428,3.5198,3.5987,4.8258.9554,1.3065,2.1273,2.8944,3.5162,4.7639.6048.8249,1.1513,1.4333,1.6395,1.8251.4877.3918.9724.7115,1.4539.959.3573.1789.8043.3166,1.3405.4125.5362.0964.9827.1516,1.3405.165v1.4642h0ZM107.7541,124.2909c0-1.7705-.5089-3.1744-1.5261-4.2107-1.0177-1.0363-2.4541-1.5545-4.3102-1.5545h-3.5059v12.5388h2.7016c1.8973,0,3.4781-.6073,4.7433-1.822,1.2647-1.2147,1.8973-2.8651,1.8973-4.9516Z" fill="#391311"/>
    <path d="M158.2111,118.2988c-.3857.0139-.9765.1237-1.7736.33-.7981.2062-1.3683.4197-1.7117.6393-.495.3439-.829,1.0038-1.0002,1.9798-.1722.9765-.2578,2.2139-.2578,3.7122v21.4274h-1.7942l-17.7364-23.9434v15.0961c0,1.6911.1062,2.9903.3197,3.8978.2129.9074.5393,1.5539.9796,1.9386.316.3026.9693.5847,1.9592.8455.9899.2614,1.6426.3991,1.9592.4125v1.4642h-12.0026v-1.4642c.3712-.0273.9966-.1614,1.8767-.4022.8796-.2403,1.4297-.4568,1.6498-.6496.481-.3846.811-.9724.9899-1.7633.1784-.7904.2681-2.1412.2681-4.0524v-14.4155c0-.6321-.1103-1.2647-.33-1.8973-.2202-.6321-.5156-1.1203-.8868-1.4642-.495-.4537-1.1652-.8419-2.0108-1.1652-.8455-.3228-1.5297-.498-2.052-.5259v-1.4642h8.3606l16.4495,22.31v-13.9175c0-1.705-.1103-3.0141-.33-3.9282-.2207-.9141-.5362-1.5225-.9487-1.8251-.3857-.2609-1.0147-.5151-1.887-.7625-.8734-.2475-1.5364-.3846-1.9901-.4125v-1.4642h11.8995v1.4642-.0002Z" fill="#391311"/>
    <path d="M181.8162,146.0987h-13.1781v-1.4642c.3712-.0273.9074-.0686,1.6086-.1237.7012-.0547,1.1961-.1371,1.4849-.2475.4537-.1784.7837-.4228.9899-.7321s.3093-.7388.3093-1.2889v-21.2005c0-.481-.0753-.8832-.2269-1.2065-.1516-.3228-.5084-.5945-1.0724-.8146-.4125-.165-.9311-.3197-1.557-.464s-1.1374-.2299-1.5364-.2578v-1.4642h13.1781v1.4642c-.4259.0139-.9353.0655-1.5261.1547-.5909.0897-1.1064.2031-1.5467.3403-.5228.165-.8734.4331-1.0518.8043s-.2681.7837-.2681,1.2374v21.1799c0,.4537.1.8559.299,1.2065s.5393.629,1.0208.8352c.2887.1103.76.2305,1.4127.3609.6527.131,1.2065.2031,1.6602.2165v1.4642h0Z" fill="#391311"/>
    <path d="M212.1445,132.6731c.6187.6878,1.0755,1.4405,1.3714,2.2582.2959.8182.4434,1.7705.4434,2.8563,0,2.5851-.9559,4.716-2.8666,6.3932-1.9107,1.6777-4.2824,2.516-7.115,2.516-1.3065,0-2.6119-.2031-3.9184-.6084s-2.4335-.8971-3.3822-1.4746l-.8868,1.5055h-1.6498l-.2887-10.0228h1.6705c.3434,1.2374.7455,2.3546,1.2065,3.3513.4609.9971,1.0693,1.9283,1.8251,2.7944.7146.8115,1.5498,1.4575,2.5057,1.9386.9559.4815,2.0654.7218,3.3306.7218.9487,0,1.7767-.1237,2.4851-.3717.7084-.2475,1.2817-.5986,1.722-1.0533.4403-.4542.7661-.9873.9796-1.6004.2134-.6125.3197-1.3183.3197-2.117,0-1.1698-.33-2.2608-.9899-3.2729-.6599-1.0116-1.6426-1.7793-2.9491-2.3026-.894-.3557-1.9179-.7496-3.0728-1.1807s-2.152-.8388-2.9903-1.2224c-1.6498-.7419-2.9316-1.7143-3.8462-2.9171-.9146-1.2023-1.3714-2.7733-1.3714-4.7108,0-1.1136.2269-2.151.6806-3.1131.4537-.9626,1.1002-1.8215,1.9386-2.5774.7971-.7151,1.7396-1.275,2.8254-1.6803s2.2201-.6084,3.4028-.6084c1.3477,0,2.5542.2062,3.6194.6187s2.0386.894,2.9182,1.4436l.8455-1.4024h1.6498l.165,9.7135h-1.6705c-.3021-1.1136-.6424-2.1788-1.0208-3.1966-.3784-1.0172-.8693-1.9386-1.4746-2.7635-.5909-.7971-1.3127-1.4333-2.1654-1.9076s-1.8973-.7115-3.1347-.7115c-1.3065,0-2.4201.4197-3.3409,1.258-.9208.8388-1.3817,1.8633-1.3817,3.0728,0,1.2652.2959,2.3134.8868,3.145.5909.8321,1.4508,1.5158,2.5779,2.052,1.0033.4815,1.9901.8971,2.9594,1.2477s1.9076.7254,2.8151,1.124c.8249.3578,1.6189.7631,2.382,1.2168s1.4261.9832,1.9901,1.588h-.0004Z" fill="#391311"/>
    <path d="M256.3728,146.0987h-12.147v-1.4642c.33-.0273.8074-.0686,1.4333-.1237.6259-.0547,1.0549-.1371,1.2889-.2475.4125-.165.7146-.4156.9074-.7527.1928-.3367.2887-.7734.2887-1.3096v-10.4147h-13.7556v10.1878c0,.4815.0794.8868.2372,1.2168s.4712.6187.9384.8662c.2341.1237.6496.2475,1.2477.3712s1.0693.1928,1.4127.2062v1.4642h-12.147v-1.4642c.33-.0273.8074-.0686,1.4333-.1237.6259-.0547,1.0549-.1371,1.2889-.2475.4125-.165.7146-.4156.9074-.7527.1928-.3367.2887-.7734.2887-1.3096v-21.118c0-.4398-.0897-.8419-.2681-1.2065-.1784-.364-.4877-.6496-.928-.8559-.3712-.1784-.8218-.3367-1.3508-.4743-.529-.1371-.9868-.2196-1.3714-.2475v-1.4642h12.147v1.4642c-.3846.0139-.8559.0758-1.4127.1856-.5568.1103-.9724.2134-1.2477.3093-.4671.165-.7806.4403-.9384.8249-.1578.3851-.2372.8043-.2372,1.258v9.0742h13.7556v-8.8679c0-.4398-.0897-.8419-.2681-1.2065-.1784-.364-.4877-.6496-.928-.8559-.3712-.1784-.8218-.3367-1.3508-.4743-.529-.1371-.9868-.2196-1.3714-.2475v-1.4642h12.147v1.4642c-.3846.0139-.8559.0758-1.4127.1856-.5568.1103-.9724.2134-1.2477.3093-.4671.165-.7806.4403-.9384.8249-.1578.3851-.2372.8043-.2372,1.258v21.0974c0,.4815.0794.8868.2372,1.2168s.4712.6187.9384.8662c.2341.1237.6496.2475,1.2477.3712s1.0693.1928,1.4127.2062v1.4644Z" fill="#391311"/>
  </g>
  <path d="M240.7653,97.241c-.4669-3.9861-9.8834-12.6085-13.1001-15.3654-1.4749-1.2642-4.7562-2.6173-6.4562-3.1558-6.4174-2.0326-13.0181-.2885-16.7344-3.104-4.6608-3.5311-1.0107-5.6002,1.4266-8.501,8.7751-10.4437-1.0555-22.5667-13.5204-20.4256-8.9927,1.5446-14.1432,11.2715-8.9221,18.9909,1.0046,1.4854,4.2327,4.0771,4.1824,5.6352-.1144,3.5434-4.8273,2.7346-11.8428.2282-3.1456-1.1238-11.7709-5.9805-18.7054-13.1479-12.9401-16.2644-11.0646-31.8171-3.1946-40.2524,12.2363-13.1133,33.3906-7.2817,48.9277,4.314,1.1045.8247,2.6719.5986,3.499-.5083.8252-1.1064.5977-2.6729-.5088-3.4985-10.8486-8.0972-21.9961-12.5234-32.2383-12.8008-9.3818-.2544-17.6338,2.9731-23.335,9.0825-5.3408,5.7236-7.9863,13.5288-7.4492,21.9771.2028,3.1891.8578,6.4019,1.9273,9.5957-.294.1588-.6155.3067-.9813.415-1.6545.3046-5.2532,2.5364-7.0301,2.9317l-12.3915-31.4574c-1.2773-.6241-8.653,3.4576-9.6024,5.0228l16.7311,42.0045c-7.2899,5.5192-14.9642,11.7677-24.0879,13.2896-24.3836,4.0674-23.6692-20.6237-13.9862-32.1005,4.1755-4.9492,6.9449-15.321,1.9883-20.1293-7.6183-8.5112-11.4764-11.6795-20.5894-18.0634-3.3141-2.3215-7.0692-4.9699-10.6575-6.7968-1.3752-.7001-2.9941-1.9011-4.5089-1.2177-4.489,2.0256-8.0901,8.8812-5.9375,13.6241,2.5632,5.6476,10.2535,4.8682,13.744,12.269,6.9097,14.6503-7.7429,18.8055-13.9628,27.6965-3.2094,4.5878-6.4504,10.3113-6.8468,15.9232-.347,4.9138-.3154,11.5555,2.2505,18.0902,2.5658,6.5347,7.2548,11.8543,11.3594,11.8414,4.1046-.0129,179.1476.3951,179.1476.3951,1.0018-.3727,1.5368-1.6835,1.4058-2.8018h0Z" fill="#cbbba0"/>
  <g>
    <path d="M244.8135,21.0034c.5762-.5224,1.3223-.9459,2.2861-1.2421,1.3271-.4037,2.8838-.7371,4.6689-1.0006.0061-.0009.0115-.0015.0176-.0024.4985-1.4631.7939-3.0101.8418-4.6141.0014-.0474-.0012-.0955-.0002-.143h-4.9984c-.0807,2.6417-1.125,5.0686-2.8158,7.0022Z"/>
    <path d="M221.215,14.0012c-.4903,1.5973-.689,3.2814-.5759,4.9374.1989.0424.3861.0789.5933.1255,1.8877.4242,3.4551.8788,4.7002,1.364.022.0084.0411.0174.0629.0258-.6767-2.0674-.4261-4.4833.6216-6.4527h-5.4021Z"/>
  </g>
  <path d="M77.0107,36.9505h-4.2959c-.374-1.4553-1.0503-3.1835-2.0278-5.1842-.9775-2.0012-2.0693-3.8902-3.2754-5.6698-1.249-1.8585-2.6108-3.4864-4.0874-4.8808-1.4766-1.3949-2.9019-2.1924-4.2744-2.3955-1.2896-.1607-2.9111-.282-4.8667-.3633-1.9551-.0808-3.7651-.1217-5.4287-.1217h-3.6187v68.8217c0,1.334.29,2.5572.8716,3.6686.5806,1.1124,1.5972,1.9703,3.0503,2.5771.7471.283,2.3135.6668,4.7007,1.1518,2.3862.4851,4.2432.7486,5.5718.7885v4.3049H17.6187v-4.3049c1.1616-.0808,2.9355-.2425,5.3228-.4851,2.3862-.2425,4.0361-.546,4.9492-.9098,1.3701-.525,2.3755-1.2826,3.0195-2.2737.6431-.9901.9648-2.3137.9648-3.972V18.3351h-3.6104c-1.2871,0-2.8853.0304-4.7939.0913-1.9097.0604-3.7354.1921-5.4785.3938-1.3696.1622-2.792.9611-4.2646,2.3955-1.4736,1.4353-2.8325,3.0622-4.0776,4.8808-1.2451,1.8195-2.3452,3.7504-3.2993,5.7911-.9556,2.0416-1.6191,3.729-1.9922,5.063H0V13.606h77.0107v23.3445Z" fill="#391311"/>
  <g>
    <path d="M211.113,60.1741c1.8672,2.0217,3.2471,4.235,4.1396,6.6395.8926,2.4055,1.3389,5.2052,1.3389,8.3982,0,7.6001-2.8857,13.8653-8.6533,18.7966-5.7695,4.9326-12.9297,7.398-21.4785,7.398-3.9434,0-7.8867-.5973-11.8291-1.7891-3.9434-1.1918-7.3457-2.6375-10.21-4.3353l-2.6768,4.4266h-4.9805l-.8721-29.4694h5.043c1.0371,3.6381,2.251,6.9229,3.6426,9.8534,1.3896,2.9314,3.2266,5.6693,5.5098,8.2165,2.1572,2.3855,4.6787,4.2849,7.5635,5.6993,2.8848,1.4158,6.2354,2.1225,10.0547,2.1225,2.8633,0,5.3633-.3638,7.502-1.0924,2.1367-.7286,3.8691-1.761,5.1982-3.0969,1.3271-1.3359,2.3125-2.9043,2.957-4.7063.6426-1.801.9648-3.8759.9648-6.2234,0-3.4403-.9961-6.6485-2.9883-9.6232s-4.96-5.2318-8.9023-6.7703c-2.6982-1.0463-5.79-2.2038-9.2764-3.4717-3.4863-1.2674-6.4961-2.4658-9.0273-3.5934-4.9805-2.1819-8.8506-5.0411-11.6104-8.577-2.7607-3.5359-4.1406-8.1537-4.1406-13.8516,0-3.2734.6855-6.3242,2.0547-9.1529,1.3701-2.8292,3.3203-5.355,5.8525-7.5778,2.4062-2.1016,5.25-3.748,8.5283-4.9398s6.7031-1.7886,10.2725-1.7886c4.0674,0,7.709.6059,10.9258,1.8186,3.2158,1.2127,6.1533,2.6285,8.8096,4.245l2.5527-4.1232h4.9805l.498,28.5591h-5.043c-.9131-3.2743-1.9404-6.4065-3.082-9.3983-1.1416-2.9914-2.625-5.7002-4.4512-8.1257-1.7852-2.3436-3.9639-4.2141-6.5371-5.6084-2.5732-1.3949-5.7266-2.092-9.4629-2.092-3.9434,0-7.3047,1.2336-10.085,3.699-2.7812,2.4658-4.1709,5.4777-4.1709,9.0345,0,3.7195.8916,6.8017,2.6768,9.2471,1.7842,2.4464,4.3779,4.4566,7.7822,6.0331,3.0293,1.4153,6.0078,2.6375,8.9336,3.6686,2.9258,1.0306,5.7588,2.1325,8.498,3.3048,2.4902,1.0515,4.8867,2.2433,7.1904,3.5773s4.3057,2.8905,6.0078,4.6692l.0002-.0002Z" fill="#391311"/>
    <path d="M256.3728,100.0429h-39.7812v-4.3049c1.1211-.0808,2.7393-.2021,4.8564-.3643,2.1162-.1607,3.6104-.4033,4.4824-.7276,1.3691-.5246,2.3652-1.2427,2.9883-2.1524.6221-.9093.9336-2.1724.9336-3.7894V26.3708c0-1.4148-.2285-2.5971-.6846-3.5473-.457-.9492-1.5361-1.7482-3.2373-2.3955-1.2451-.4851-2.8125-.9397-4.7002-1.3639-1.8896-.4247-3.4355-.6767-4.6387-.7581v-4.3049h39.7812v4.3049c-1.2861.0409-2.8223.1921-4.6064.4546-1.7852.2635-3.3418.5968-4.6689,1.0006-1.5781.4851-2.6367,1.2736-3.1758,2.3646-.5391,1.0919-.8086,2.3046-.8086,3.6381v62.273c0,1.334.3008,2.5163.9023,3.5473.6016,1.0306,1.6289,1.849,3.082,2.4559.8711.3239,2.293.6772,4.2646,1.061,1.9707.3847,3.6416.5968,5.0107.6368v4.3049h.0002Z" fill="#391311"/>
    <g>
      <path d="M149.073,94.6648c-1.549-.387-2.8044-.8655-3.7665-1.4372-1.4229-.937-2.5327-1.8951-3.3273-2.8734-.7946-.9783-1.5066-2.2625-2.1339-3.8517l-4.5325-11.4235c-4.3102,3.1248-7.0538,4.9486-11.054,7.2989l2.5396,6.692c.1664.4081.2915.8771.3752,1.4065.0837.5304.126.9783.126,1.3451,0,.8972-1.0782,1.6506-3.2328,2.2625-2.1555.6109-4.8644,1.019-8.1287,1.2228v4.3408h37.0274v-4.3408c-1.0468-.0403-2.3446-.2542-3.8925-.6421h0Z" fill="#391311"/>
      <path d="M81.8653,89.9265c0-.6929.1039-1.5901.3137-2.6902.2102-1.101.5869-2.5272,1.1319-4.2804.5869-1.793,1.2466-3.7495,1.9807-5.8696.7336-2.1186,1.6868-4.6055,2.8601-7.4587h31.2684l1.2391,3.265c3.4946-2.2342,6.8824-4.729,10.7479-7.6573l-21.255-53.5696h-5.022c-4.2273,10.5983-9.0396,22.6832-14.4377,36.2565-5.3992,13.5734-10.3375,25.8016-14.8149,36.6848-.8793,2.1201-1.7794,3.7812-2.6996,4.9829-.9212,1.2027-2.2186,2.3541-3.8921,3.4546-1.0467.6526-2.3854,1.172-4.0176,1.559-1.6321.388-2.9915.622-4.0806.7035v4.3408h33.5475v-4.3408c-3.3062-.1625-6.2785-.6929-8.915-1.5901-2.6365-.8958-3.9546-2.1599-3.9546-3.7903h-.0002ZM103.6343,30.5178l13.4924,33.668h-26.7919l13.2994-33.668h0Z" fill="#391311"/>
    </g>
  </g>
</svg>