<?xml version="1.0" encoding="UTF-8"?>
<svg id="Layer_1" xmlns="http://www.w3.org/2000/svg" baseProfile="tiny" version="1.2" viewBox="0 0 563.7994 101.4272">
  <!-- Generator: Adobe Illustrator 30.2.1, SVG Export Plug-In . SVG Version: 2.1.1 Build 1)  -->
  <g>
    <polygon points="117.1266 64.1857 103.6342 30.5177 90.3347 64.1857 117.1266 64.1857" fill="#fff"/>
    <path d="M240.7652,97.2409c-.4669-3.9861-9.8834-12.6085-13.1001-15.3654-1.4749-1.2642-4.7562-2.6173-6.4562-3.1558-6.4174-2.0326-13.0181-.2885-16.7344-3.104-4.6608-3.5311-1.0107-5.6002,1.4266-8.501,8.7751-10.4437-1.0555-22.5667-13.5204-20.4256-8.9927,1.5446-14.1432,11.2715-8.9221,18.9909,1.0046,1.4854,4.2327,4.0771,4.1824,5.6352-.1144,3.5434-4.8273,2.7346-11.8428.2282-3.1456-1.1238-11.7709-5.9805-18.7054-13.1479-12.9401-16.2644-11.0646-31.8171-3.1946-40.2524,12.2363-13.1133,33.3906-7.2817,48.9277,4.314,1.1045.8247,2.6719.5986,3.499-.5083.8252-1.1064.5977-2.6729-.5088-3.4985-10.8486-8.0972-21.9961-12.5234-32.2383-12.8008-9.3818-.2544-17.6338,2.9731-23.335,9.0825-5.3408,5.7236-7.9863,13.5288-7.4492,21.9771.2028,3.1891.8578,6.4019,1.9273,9.5957-.294.1588-.6155.3067-.9813.415-1.6545.3046-5.2532,2.5364-7.0301,2.9317l-12.3915-31.4574c-1.2773-.6241-8.653,3.4576-9.6024,5.0228l16.7311,42.0045c-7.2899,5.5192-14.9642,11.7677-24.0879,13.2896-24.3836,4.0674-23.6692-20.6237-13.9862-32.1005,4.1755-4.9492,6.9449-15.321,1.9883-20.1293-7.6183-8.5112-11.4764-11.6795-20.5894-18.0634-3.3141-2.3215-7.0692-4.9699-10.6575-6.7968-1.3752-.7001-2.9941-1.9011-4.5089-1.2177-4.489,2.0256-8.0901,8.8812-5.9375,13.6241,2.5632,5.6476,10.2535,4.8682,13.744,12.269,6.9097,14.6503-7.7429,18.8055-13.9628,27.6965-3.2094,4.5878-6.4504,10.3113-6.8468,15.9232-.347,4.9138-.3154,11.5555,2.2505,18.0902,2.5658,6.5347,7.2548,11.8543,11.3594,11.8414s179.1476.3951,179.1476.3951c1.0018-.3727,1.5368-1.6835,1.4058-2.8018h-.0001Z" fill="#cbbba0"/>
    <g>
      <path d="M244.8134,21.0033c.5762-.5224,1.3223-.9459,2.2861-1.2421,1.3271-.4037,2.8838-.7371,4.6689-1.0006.0061-.0009.0115-.0015.0176-.0024.4985-1.4631.7939-3.0101.8418-4.6141.0014-.0474-.0012-.0955-.0002-.143h-4.9984c-.0807,2.6417-1.125,5.0686-2.8158,7.0022Z"/>
      <path d="M221.2149,14.0011c-.4903,1.5973-.689,3.2814-.5759,4.9374.1989.0424.3861.0789.5933.1255,1.8877.4242,3.4551.8788,4.7002,1.364.022.0084.0411.0174.0629.0258-.6767-2.0674-.4261-4.4833.6216-6.4527,0,0-5.4021,0-5.4021,0Z"/>
    </g>
    <path d="M77.0107,36.9504h-4.2959c-.374-1.4553-1.0503-3.1835-2.0278-5.1842-.9775-2.0012-2.0693-3.8902-3.2754-5.6698-1.249-1.8585-2.6108-3.4864-4.0874-4.8808-1.4766-1.3949-2.9019-2.1924-4.2744-2.3955-1.2896-.1607-2.9111-.282-4.8667-.3633-1.9551-.0808-3.7651-.1217-5.4287-.1217h-3.6187v68.8217c0,1.334.29,2.5572.8716,3.6686.5806,1.1124,1.5972,1.9703,3.0503,2.5771.7471.283,2.3135.6668,4.7007,1.1518,2.3862.4851,4.2432.7486,5.5718.7885v4.3049H17.6186v-4.3049c1.1616-.0808,2.9355-.2425,5.3228-.4851,2.3862-.2425,4.0361-.546,4.9492-.9098,1.3701-.525,2.3755-1.2826,3.0195-2.2737.6431-.9901.9648-2.3137.9648-3.972V18.335h-3.6104c-1.2871,0-2.8853.0304-4.7939.0913-1.9097.0604-3.7354.1921-5.4785.3938-1.3696.1622-2.792.9611-4.2646,2.3955-1.4736,1.4353-2.8325,3.0622-4.0776,4.8808-1.2451,1.8195-2.3452,3.7504-3.2993,5.7911-.9556,2.0416-1.6191,3.729-1.9922,5.063H0V13.606h77.0107v23.3445h0Z" fill="#391311"/>
    <g>
      <path d="M211.1129,60.174c1.8672,2.0217,3.2471,4.235,4.1396,6.6395.8926,2.4055,1.3389,5.2052,1.3389,8.3982,0,7.6001-2.8857,13.8653-8.6533,18.7966-5.7695,4.9326-12.9297,7.398-21.4785,7.398-3.9434,0-7.8867-.5973-11.8291-1.7891-3.9434-1.1918-7.3457-2.6375-10.21-4.3353l-2.6768,4.4266h-4.9805l-.8721-29.4694h5.043c1.0371,3.6381,2.251,6.9229,3.6426,9.8534,1.3896,2.9314,3.2266,5.6693,5.5098,8.2165,2.1572,2.3855,4.6787,4.2849,7.5635,5.6993,2.8848,1.4158,6.2354,2.1225,10.0547,2.1225,2.8633,0,5.3633-.3638,7.502-1.0924,2.1367-.7286,3.8691-1.761,5.1982-3.0969,1.3271-1.3359,2.3125-2.9043,2.957-4.7063.6426-1.801.9648-3.8759.9648-6.2234,0-3.4403-.9961-6.6485-2.9883-9.6232s-4.96-5.2318-8.9023-6.7703c-2.6982-1.0463-5.79-2.2038-9.2764-3.4717-3.4863-1.2674-6.4961-2.4658-9.0273-3.5934-4.9805-2.1819-8.8506-5.0411-11.6104-8.577-2.7607-3.5359-4.1406-8.1537-4.1406-13.8516,0-3.2734.6855-6.3242,2.0547-9.1529,1.3701-2.8292,3.3203-5.355,5.8525-7.5778,2.4062-2.1016,5.25-3.748,8.5283-4.9398s6.7031-1.7886,10.2725-1.7886c4.0674,0,7.709.6059,10.9258,1.8186,3.2158,1.2127,6.1533,2.6285,8.8096,4.245l2.5527-4.1232h4.9805l.498,28.5591h-5.043c-.9131-3.2743-1.9404-6.4065-3.082-9.3983-1.1416-2.9914-2.625-5.7002-4.4512-8.1257-1.7852-2.3436-3.9639-4.2141-6.5371-5.6084-2.5732-1.3949-5.7266-2.092-9.4629-2.092-3.9434,0-7.3047,1.2336-10.085,3.699-2.7812,2.4658-4.1709,5.4777-4.1709,9.0345,0,3.7195.8916,6.8017,2.6768,9.2471,1.7842,2.4464,4.3779,4.4566,7.7822,6.0331,3.0293,1.4153,6.0078,2.6375,8.9336,3.6686,2.9258,1.0306,5.7588,2.1325,8.498,3.3048,2.4902,1.0515,4.8867,2.2433,7.1904,3.5773s4.3057,2.8905,6.0078,4.6692l.0002-.0002Z" fill="#391311"/>
      <path d="M256.3727,100.0428h-39.7812v-4.3049c1.1211-.0808,2.7393-.2021,4.8564-.3643,2.1162-.1607,3.6104-.4033,4.4824-.7276,1.3691-.5246,2.3652-1.2427,2.9883-2.1524.6221-.9093.9336-2.1724.9336-3.7894V26.3708c0-1.4148-.2285-2.5971-.6846-3.5473-.457-.9492-1.5361-1.7482-3.2373-2.3955-1.2451-.4851-2.8125-.9397-4.7002-1.3639-1.8896-.4247-3.4355-.6767-4.6387-.7581v-4.3049h39.7812v4.3049c-1.2861.0409-2.8223.1921-4.6064.4546-1.7852.2635-3.3418.5968-4.6689,1.0006-1.5781.4851-2.6367,1.2736-3.1758,2.3646-.5391,1.0919-.8086,2.3046-.8086,3.6381v62.273c0,1.334.3008,2.5163.9023,3.5473.6016,1.0306,1.6289,1.849,3.082,2.4559.8711.3239,2.293.6772,4.2646,1.061,1.9707.3847,3.6416.5968,5.0107.6368v4.3049h.0002Z" fill="#391311"/>
      <g>
        <path d="M149.073,94.6647c-1.549-.387-2.8044-.8655-3.7665-1.4372-1.4229-.937-2.5327-1.8951-3.3273-2.8734-.7946-.9783-1.5066-2.2625-2.1339-3.8517l-4.5325-11.4235c-4.3102,3.1248-7.0538,4.9486-11.054,7.2989l2.5396,6.692c.1664.4081.2915.8771.3752,1.4065.0837.5304.126.9783.126,1.3451,0,.8972-1.0782,1.6506-3.2328,2.2625-2.1555.6109-4.8644,1.019-8.1287,1.2228v4.3408h37.0274v-4.3408c-1.0468-.0403-2.3446-.2542-3.8925-.6421h0Z" fill="#391311"/>
        <path d="M81.8653,89.9264c0-.6929.1039-1.5901.3137-2.6902.2102-1.101.5869-2.5272,1.1319-4.2804.5869-1.793,1.2466-3.7495,1.9807-5.8696.7336-2.1186,1.6868-4.6055,2.8601-7.4587h31.2684l1.2391,3.265c3.4946-2.2342,6.8824-4.729,10.7479-7.6573l-21.255-53.5696h-5.022c-4.2273,10.5983-9.0396,22.6832-14.4377,36.2565-5.3992,13.5734-10.3375,25.8016-14.8149,36.6848-.8793,2.1201-1.7794,3.7812-2.6996,4.9829-.9212,1.2027-2.2186,2.3541-3.8921,3.4546-1.0467.6526-2.3854,1.172-4.0176,1.559-1.6321.388-2.9915.622-4.0806.7035v4.3408h33.5475v-4.3408c-3.3062-.1625-6.2785-.6929-8.915-1.5901-2.6365-.8958-3.9546-2.1599-3.9546-3.7903h-.0002ZM103.6342,30.5177l13.4924,33.668h-26.7919l13.2994-33.668h0Z" fill="#391311"/>
      </g>
    </g>
  </g>
  <g isolation="isolate">
    <text transform="translate(269.1752 80.1562)" fill="#cbbba0" font-family="Georgia, Georgia" font-size="64.8899" isolation="isolate"><tspan x="0" y="0">FURNISH</tspan></text>
  </g>
  <rect x="271.1222" y="13.6139" width="292.6694" height="4.2998" fill="#cbbba0"/>
  <rect x="256.3725" y="95.5558" width="307.4241" height="4.3008" transform="translate(-.1107 .4656) rotate(-.065)" fill="#cbbba0"/>
</svg>